<?xml version="1.0" standalone="no"?>
<!DOCTYPE svg PUBLIC "-//W3C//DTD SVG 20010904//EN"
 "http://www.w3.org/TR/2001/REC-SVG-20010904/DTD/svg10.dtd">
<svg version="1.0" xmlns="http://www.w3.org/2000/svg"
 width="990.000000pt" height="990.000000pt" viewBox="0 0 990.000000 990.000000"
 preserveAspectRatio="xMidYMid meet">
<metadata>
Created by potrace 1.14, written by Peter Selinger 2001-2017
</metadata>
<g transform="translate(0.000000,990.000000) scale(0.100000,-0.100000)"
fill="#000000" stroke="none">
<path d="M8095 9886 c-151 -28 -272 -103 -465 -290 -596 -577 -2121 -2071
-3149 -3086 -814 -804 -753 -730 -994 -1190 -215 -409 -1001 -2141 -1034
-2279 -21 -84 -23 -277 -4 -351 28 -111 80 -189 149 -224 94 -47 198 -56 362
-31 219 33 234 39 725 296 997 521 1805 971 1980 1102 33 25 968 953 2077
2063 2011 2012 2017 2019 2052 2094 81 176 71 384 -27 575 -23 46 -74 103
-222 250 -383 381 -960 910 -1083 992 -109 73 -242 102 -367 79z m137 -747
c57 -28 724 -695 763 -762 57 -100 73 -202 41 -269 -9 -18 -162 -179 -340
-357 l-324 -324 -75 69 c-41 38 -291 272 -555 519 l-481 450 312 313 c172 172
332 325 356 340 94 56 217 64 303 21z m-794 -1714 c282 -263 512 -482 512
-485 0 -3 -592 -597 -1315 -1320 l-1315 -1315 -555 555 -554 555 1317 1281
1316 1282 42 -37 c22 -20 271 -252 552 -516z m-2678 -3396 c0 -9 -1500 -1006
-1558 -1034 -71 -35 -149 -51 -185 -36 -35 14 -61 71 -51 115 11 51 56 159
158 373 115 244 187 372 539 961 l271 453 413 -413 c227 -227 413 -416 413
-419z"/>
<path d="M1026 9624 c-359 -71 -687 -326 -856 -664 -37 -73 -73 -172 -98 -270
-15 -60 -16 -358 -19 -3828 -3 -3244 -1 -3777 11 -3860 73 -489 431 -865 926
-974 l105 -23 3770 0 c3519 0 3776 1 3860 17 482 92 819 422 942 923 16 65 18
247 20 2583 l3 2512 -242 -2 -243 -3 -5 -2495 c-4 -2065 -7 -2502 -19 -2535
-73 -215 -238 -372 -447 -425 -76 -20 -125 -20 -3829 -20 -3677 0 -3753 0
-3827 19 -183 47 -324 161 -407 328 -66 133 -61 -198 -61 3916 0 3367 2 3745
16 3800 44 172 167 322 328 401 144 71 -44 66 2676 66 l2450 0 0 275 0 275
-2492 -1 c-2064 -1 -2505 -3 -2562 -15z"/>
</g>
</svg>
